HIERARCHY
ROOT hip
{
  OFFSET 43.8057 46.2359 96.0877
  CHANNELS 6 Xposition Yposition Zposition Zrotation Xrotation Yrotation
  JOINT abdomen
  {
    OFFSET 0 6.09653 0.699602
    CHANNELS 3 Zrotation Xrotation Yrotation
    JOINT chest
    {
      OFFSET 0 2.49857 -0.699602
      CHANNELS 3 Zrotation Xrotation Yrotation
      JOINT lCollar
      {
        OFFSET 1.49915 11.2936 -1.69903
        CHANNELS 3 Zrotation Xrotation Yrotation
        JOINT lShldr
        {
          OFFSET 4.89721 -0.299833 0.799545
          CHANNELS 3 Zrotation Xrotation Yrotation
          JOINT lForeArm
          {
            OFFSET 12.4216 -1.19922 0.931564
            CHANNELS 3 Zrotation Xrotation Yrotation
            JOINT lHand
            {
              OFFSET 9.86568 0.0998482 3.66582
              CHANNELS 3 Zrotation Xrotation Yrotation
              JOINT lThumb1
              {
                OFFSET 0.399772 -0.399773 1.19932
                CHANNELS 3 Zrotation Xrotation Yrotation
                JOINT lThumb2
                {
                  OFFSET 0.99813 0 1.47145
                  CHANNELS 3 Zrotation Xrotation Yrotation
                  End Site
                  {
                    OFFSET 0.97784 -0.27884 0.829828
                  }
                }
              }
              JOINT lPinky1
              {
                OFFSET 3.29812 0.0999421 -0.399772
                CHANNELS 3 Zrotation Xrotation Yrotation
                JOINT lPinky2
                {
                  OFFSET 0.899488 -0.0999427 0
                  CHANNELS 3 Zrotation Xrotation Yrotation
                  End Site
                  {
                    OFFSET 0.999427 -0.0999418 0
                  }
                }
              }
              JOINT lIndex1
              {
                OFFSET 2.69846 0.399775 2.09881
                CHANNELS 3 Zrotation Xrotation Yrotation
                JOINT lIndex2
                {
                  OFFSET 1.33823 -0.200884 0.6843
                  CHANNELS 3 Zrotation Xrotation Yrotation
                  End Site
                  {
                    OFFSET 0.760567 0.00099574 0.415074
                  }
                }
              }
              JOINT lMid1
              {
                OFFSET 2.99829 0.499714 1.09937
                CHANNELS 3 Zrotation Xrotation Yrotation
                JOINT lMid2
                {
                  OFFSET 1.45827 -0.0999388 0.600149
                  CHANNELS 3 Zrotation Xrotation Yrotation
                  End Site
                  {
                    OFFSET 1.04031 -0.0999473 0.399282
                  }
                }
              }
              JOINT lRing1
              {
                OFFSET 3.39806 0.399773 0.299829
                CHANNELS 3 Zrotation Xrotation Yrotation
                JOINT lRing2
                {
                  OFFSET 1.29926 -0.199886 0.399772
                  CHANNELS 3 Zrotation Xrotation Yrotation
                  End Site
                  {
                    OFFSET 0.899489 -0.0999425 0.199886
                  }
                }
              }
            }
          }
        }
      }
      JOINT rCollar
      {
        OFFSET -1.49915 11.2936 -1.69903
        CHANNELS 3 Zrotation Xrotation Yrotation
        JOINT rShldr
        {
          OFFSET -4.89721 -0.299829 0.799545
          CHANNELS 3 Zrotation Xrotation Yrotation
          JOINT rForeArm
          {
            OFFSET -12.4216 -1.19922 0.931564
            CHANNELS 3 Zrotation Xrotation Yrotation
            JOINT rHand
            {
              OFFSET -9.86568 0.0998477 3.66582
              CHANNELS 3 Zrotation Xrotation Yrotation
              JOINT rPinky1
              {
                OFFSET -3.29812 0.0999423 -0.399772
                CHANNELS 3 Zrotation Xrotation Yrotation
                JOINT rPinky2
                {
                  OFFSET -0.899492 -0.0999405 0
                  CHANNELS 3 Zrotation Xrotation Yrotation
                  End Site
                  {
                    OFFSET -0.999429 -0.0999421 0
                  }
                }
              }
              JOINT rMid1
              {
                OFFSET -2.99829 0.499717 1.09937
                CHANNELS 3 Zrotation Xrotation Yrotation
                JOINT rMid2
                {
                  OFFSET -1.45827 -0.0999391 0.600149
                  CHANNELS 3 Zrotation Xrotation Yrotation
                  End Site
                  {
                    OFFSET -1.0403 -0.0999474 0.399282
                  }
                }
              }
              JOINT rIndex1
              {
                OFFSET -2.69847 0.399775 2.09881
                CHANNELS 3 Zrotation Xrotation Yrotation
                JOINT rIndex2
                {
                  OFFSET -1.33823 -0.200883 0.6843
                  CHANNELS 3 Zrotation Xrotation Yrotation
                  End Site
                  {
                    OFFSET -0.760569 0.00099747 0.415074
                  }
                }
              }
              JOINT rRing1
              {
                OFFSET -3.39807 0.399775 0.299829
                CHANNELS 3 Zrotation Xrotation Yrotation
                JOINT rRing2
                {
                  OFFSET -1.29926 -0.199888 0.399772
                  CHANNELS 3 Zrotation Xrotation Yrotation
                  End Site
                  {
                    OFFSET -0.899487 -0.0999402 0.199886
                  }
                }
              }
              JOINT rThumb1
              {
                OFFSET -0.399773 -0.39977 1.19932
                CHANNELS 3 Zrotation Xrotation Yrotation
                JOINT rThumb2
                {
                  OFFSET -0.998132 0 1.47145
                  CHANNELS 3 Zrotation Xrotation Yrotation
                  End Site
                  {
                    OFFSET -0.977841 -0.278837 0.829828
                  }
                }
              }
            }
          }
        }
      }
      JOINT neck
      {
        OFFSET 0 12.4929 -0.499715
        CHANNELS 3 Zrotation Xrotation Yrotation
        JOINT head
        {
          OFFSET 0 3.59795 0.299829
          CHANNELS 3 Zrotation Xrotation Yrotation
          JOINT rightEye
          {
            OFFSET -1.19932 3.69789 3.19818
            CHANNELS 3 Zrotation Xrotation Yrotation
            End Site
            {
              OFFSET 0 0 0
            }
          }
          JOINT leftEye
          {
            OFFSET 1.19932 3.69789 3.19818
            CHANNELS 3 Zrotation Xrotation Yrotation
            End Site
            {
              OFFSET 0 0 0
            }
          }
        }
      }
    }
  }
  JOINT rButtock
  {
    OFFSET -4.19761 -0.599656 -0.299829
    CHANNELS 3 Zrotation Xrotation Yrotation
    JOINT rThigh
    {
      OFFSET 0 -1.49915 0
      CHANNELS 3 Zrotation Xrotation Yrotation
      JOINT rShin
      {
        OFFSET 0.699602 -17.6899 -1.09938
        CHANNELS 3 Zrotation Xrotation Yrotation
        JOINT rFoot
        {
          OFFSET -0.699602 -18.0897 -0.699602
          CHANNELS 3 Zrotation Xrotation Yrotation
          End Site
          {
            OFFSET 0 -2.09881 5.59681
          }
        }
      }
    }
  }
  JOINT lButtock
  {
    OFFSET 4.19761 -0.599656 -0.299829
    CHANNELS 3 Zrotation Xrotation Yrotation
    JOINT lThigh
    {
      OFFSET 0 -1.49914 0
      CHANNELS 3 Zrotation Xrotation Yrotation
      JOINT lShin
      {
        OFFSET -0.699602 -17.6899 -1.09937
        CHANNELS 3 Zrotation Xrotation Yrotation
        JOINT lFoot
        {
          OFFSET 0.699602 -18.0897 -0.699602
          CHANNELS 3 Zrotation Xrotation Yrotation
          End Site
          {
            OFFSET 0 -2.0988 5.59681
          }
        }
      }
    }
  }
}
MOTION
Frames:	7
Frame Time:	0.0333333
43.8057 46.2359 96.0877 -0.0143233 0.112968 168.321 -0.00975517 -0.00975351 -0.00975351 -3.14044 -1.90924 -1.40993 -7.91229 1.92554 -13.8363 -65.4038 -12.7255 18.2421 9.8911 10.7178 -38.0067 -8.75152 3.04841 2.03236 4.3356e-005 -0.045622 -0.00980864 9.41156 -7.94154 0.625637 -0.0098645 -0.011007 -0.00833234 -0.629908 -0.00995831 0.00100883 -0.0141103 -0.0100864 -0.00835606 -8.62297 -0.0232171 1.79819 -0.0134437 -0.00969483 -0.00912444 0.204765 0.414792 -1.45043 -0.0118469 -0.0109711 -0.00814071 -2.42851 -0.502382 -4.43241 -2.08639 -0.524273 0.893412 84.2475 36.1319 -55.5575 22.1127 11.4884 101.146 16.4051 6.39643 1.4927 -0.00959181 -0.0083053 -0.0110358 0.629425 -0.00953167 -0.000952463 -0.00609249 -0.00836212 -0.0103539 -0.219775 0.404223 1.44943 -0.00535639 -0.00716099 -0.0109534 8.61171 -0.00190224 -1.79828 -0.00762482 -0.00786988 -0.0111471 2.42704 -0.497593 4.4329 5.92621e-005 -0.0456283 -0.00979178 -9.39785 -7.91692 -0.663798 3.03887 2.00561 1.428 3.33814 -27.1308 0.160421 0 0 0 0 0 0 -0.00975517 -0.00969887 -0.00983547 9.02658 -20.8399 4.91557 0.227714 1.66573 5.94548 -5.86388 33.9811 0.657068 -0.00975517 -0.00983547 -0.00969887 -5.84723 1.65099 8.00528 -0.148859 5.57824 -3.04509 5.78791 15.8615 -0.410631 
43.8986 46.1078 95.3217 0.355603 0.420495 168.919 -0.00975517 -0.00975351 -0.00975351 -3.24808 -2.2488 -1.44473 -8.00381 1.90809 -13.4197 -65.4452 -7.06557 16.3762 8.92583 9.62429 -39.2467 -8.1172 2.77239 2.60934 4.3356e-005 -0.045622 -0.00980864 9.41156 -7.94154 0.625637 -0.0098645 -0.011007 -0.00833234 -0.629908 -0.00995831 0.00100883 -0.0141103 -0.0100864 -0.00835606 -8.62297 -0.0232171 1.79819 -0.0134437 -0.00969483 -0.00912444 0.204765 0.414792 -1.45043 -0.0118469 -0.0109711 -0.00814071 -2.42851 -0.502382 -4.43241 -1.85379 -0.505056 1.43365 89.7956 40.1312 -60.9786 27.1825 15.6322 102.12 13.2637 5.30118 2.46311 -0.00959181 -0.0083053 -0.0110358 0.629425 -0.00953167 -0.000952463 -0.00609249 -0.00836212 -0.0103539 -0.219775 0.404223 1.44943 -0.00535639 -0.00716099 -0.0109534 8.61171 -0.00190224 -1.79828 -0.00762482 -0.00786988 -0.0111471 2.42705 -0.497593 4.4329 5.92621e-005 -0.0456283 -0.00979178 -9.39785 -7.91692 -0.663798 3.44168 2.35561 1.41529 2.9331 -26.8258 -0.235153 0 0 0 0 0 0 -0.00975517 -0.00969887 -0.00983547 10.1403 -21.815 8.44538 0.117711 1.54764 3.12473 -5.18435 31.8056 0.410829 -0.00975517 -0.00983547 -0.00969887 -5.67064 3.30688 6.35863 -0.118284 5.27268 -2.33426 5.71177 15.2322 -0.390104 
43.9622 45.941 94.4555 0.73244 0.474855 170.032 -0.00975517 -0.00975351 -0.00975351 -3.20016 -2.60495 -1.63168 -7.95505 1.99022 -14.4802 -65.4675 -7.08007 15.1022 8.77602 8.86837 -41.1643 -8.28699 2.771 3.2741 4.3356e-005 -0.045622 -0.00980864 9.41156 -7.94154 0.625637 -0.0098645 -0.011007 -0.00833234 -0.629908 -0.00995831 0.00100883 -0.0141103 -0.0100864 -0.00835606 -8.62296 -0.0232171 1.79819 -0.0134437 -0.00969483 -0.00912444 0.204765 0.414792 -1.45043 -0.0118469 -0.0109711 -0.00814071 -2.42851 -0.502382 -4.43241 -1.89584 -0.506938 0.801984 92.8345 41.3935 -63.2325 31.3897 19.791 103.22 9.11974 3.44581 0.534808 -0.00959181 -0.0083053 -0.0110358 0.629425 -0.00953167 -0.000952463 -0.00609249 -0.00836212 -0.0103539 -0.219775 0.404223 1.44943 -0.00535639 -0.00716099 -0.0109534 8.61171 -0.00190224 -1.79828 -0.00762482 -0.00786988 -0.0111471 2.42705 -0.497593 4.4329 5.92621e-005 -0.0456283 -0.00979178 -9.39785 -7.91692 -0.663798 3.74722 2.73038 1.53952 2.34248 -26.436 -1.05643 0 0 0 0 0 0 -0.00975517 -0.00969887 -0.00983547 10.643 -22.4098 8.90356 0.20072 1.6508 5.24999 -4.4434 29.1578 0.173542 -0.00975517 -0.00983547 -0.00969887 -5.2822 4.73241 6.15494 -0.132097 5.29469 -2.67416 5.62349 14.5111 -0.367455 
44.0186 45.7561 93.5312 1.00582 0.703333 171.071 -0.00975517 -0.00975351 -0.00975351 -3.2462 -2.85228 -1.59531 -7.7316 2.01561 -15.3352 -65.7102 -6.47426 13.1205 9.35804 8.8402 -42.2229 -8.67592 2.90351 3.27727 4.3356e-005 -0.045622 -0.00980864 9.41156 -7.94154 0.625637 -0.0098645 -0.011007 -0.00833234 -0.629908 -0.00995831 0.00100883 -0.0141103 -0.0100864 -0.00835606 -8.62295 -0.0232171 1.79819 -0.0134437 -0.00969483 -0.00912444 0.204765 0.414792 -1.45043 -0.0118469 -0.0109711 -0.00814071 -2.42851 -0.502382 -4.43241 -1.74185 -0.493082 0.691281 95.6508 42.3197 -65.2549 34.4463 23.5654 104.376 4.38022 1.57947 -0.809025 -0.00959181 -0.0083053 -0.0110358 0.629425 -0.00953167 -0.000952463 -0.00609249 -0.00836212 -0.0103539 -0.219775 0.404223 1.44943 -0.00535639 -0.00716099 -0.0109534 8.61171 -0.00190224 -1.79828 -0.00762482 -0.00786988 -0.0111471 2.42705 -0.497593 4.4329 5.92621e-005 -0.0456283 -0.00979178 -9.39785 -7.91692 -0.663798 4.0341 2.98183 1.45414 1.66378 -25.9845 -2.19416 0 0 0 0 0 0 -0.00975517 -0.00969887 -0.00983547 10.8107 -22.3764 9.2262 0.294254 1.76917 7.75613 -4.89278 27.5929 0.299942 -0.00975517 -0.00983547 -0.00969887 -5.0714 6.3157 5.85597 -0.133566 5.40987 -2.69738 5.58666 13.9024 -0.355234 
44.0685 45.5503 92.5385 1.36333 0.959153 172.206 -0.00975517 -0.00975351 -0.00975351 -3.20906 -3.15973 -1.57712 -7.80465 2.08731 -15.9834 -65.7271 -5.19899 11.5658 10.1495 8.64589 -44.0106 -9.1168 3.00468 3.77803 4.3356e-005 -0.045622 -0.00980864 9.41156 -7.94154 0.625637 -0.0098645 -0.011007 -0.00833234 -0.629908 -0.00995831 0.00100883 -0.0141103 -0.0100864 -0.00835606 -8.62294 -0.0232171 1.79819 -0.0134437 -0.00969483 -0.00912444 0.204765 0.414792 -1.45043 -0.0118469 -0.0109711 -0.00814071 -2.42851 -0.502382 -4.43241 -1.15843 -0.444077 0.0311664 98.2058 44.088 -67.3856 36.8389 26.9721 105.328 -1.0621 -0.400703 -1.22577 -0.00959181 -0.0083053 -0.0110358 0.629425 -0.00953167 -0.000952463 -0.00609249 -0.00836212 -0.0103539 -0.219775 0.404223 1.44943 -0.00535639 -0.00716099 -0.0109534 8.61171 -0.00190224 -1.79828 -0.00762482 -0.00786988 -0.0111471 2.42706 -0.497593 4.4329 5.92621e-005 -0.0456283 -0.00979178 -9.39785 -7.91692 -0.663798 4.32741 3.29506 1.40183 1.01025 -25.5651 -3.29301 0 0 0 0 0 0 -0.00975517 -0.00969887 -0.00983547 10.7499 -21.8466 9.11627 0.318396 1.79892 8.42508 -5.4883 28.027 0.471734 -0.00975517 -0.00983547 -0.00969887 -4.75185 7.96054 5.47039 -0.126264 5.64867 -2.4884 5.60951 13.4583 -0.354321 
44.1271 45.3482 91.4699 2.2041 1.03262 173.525 -0.00975517 -0.00975351 -0.00975351 -2.90007 -3.46633 -1.73513 -7.63089 2.17287 -17.4568 -65.5729 -4.57755 10.1717 9.96593 8.04234 -45.4883 -8.72814 2.82634 4.27941 4.3356e-005 -0.045622 -0.00980864 9.41156 -7.94154 0.625637 -0.0098645 -0.011007 -0.00833234 -0.629908 -0.00995831 0.00100883 -0.0141103 -0.0100864 -0.00835606 -8.62293 -0.0232171 1.79819 -0.0134437 -0.00969483 -0.00912444 0.204765 0.414792 -1.45043 -0.0118469 -0.0109711 -0.00814071 -2.42851 -0.502382 -4.43241 -0.463132 -0.383498 0.427751 100.434 45.1985 -68.6795 39.0362 30.0986 105.864 -7.17231 -2.57287 -1.65512 -0.00959181 -0.0083053 -0.0110358 0.629425 -0.00953167 -0.000952463 -0.00609249 -0.00836212 -0.0103539 -0.219775 0.404223 1.44943 -0.00535639 -0.00716099 -0.0109534 8.61171 -0.00190224 -1.79828 -0.00762482 -0.00786988 -0.0111471 2.42706 -0.497593 4.4329 5.92621e-005 -0.0456283 -0.00979178 -9.39785 -7.91692 -0.663798 4.85575 3.62884 1.52453 0.306186 -25.4696 -4.49005 0 0 0 0 0 0 -0.00975517 -0.00969887 -0.00983547 11.0079 -21.2983 8.47296 0.257575 1.71898 6.75863 -4.9655 30.4353 0.334126 -0.00975517 -0.00983547 -0.00969887 -3.78942 9.46936 4.99461 -0.123136 6.15278 -2.35023 5.72443 12.6357 -0.362965 
44.1876 45.1765 90.3456 3.55341 1.08544 174.874 -0.00975517 -0.00975351 -0.00975351 -2.31407 -3.63067 -1.9561 -6.847 2.16175 -19.7136 -65.6844 -4.55141 9.32567 10.0293 7.64961 -46.7449 -9.03724 2.91863 4.38484 4.3356e-005 -0.045622 -0.00980864 9.41156 -7.94154 0.625637 -0.0098645 -0.011007 -0.00833234 -0.629908 -0.00995831 0.00100883 -0.0141103 -0.0100864 -0.00835606 -8.62292 -0.0232171 1.79819 -0.0134437 -0.00969483 -0.00912444 0.204765 0.414792 -1.45043 -0.0118469 -0.0109711 -0.00814071 -2.42851 -0.502382 -4.43241 0.155894 -0.325252 0.796124 102.627 46.3653 -69.4516 40.9808 32.5786 105.895 -12.4938 -4.43194 -2.01812 -0.00959181 -0.0083053 -0.0110358 0.629425 -0.00953167 -0.000952463 -0.00609249 -0.00836212 -0.0103539 -0.219775 0.404223 1.44943 -0.00535639 -0.00716099 -0.0109534 8.61171 -0.00190224 -1.79828 -0.00762482 -0.00786988 -0.0111471 2.42707 -0.497593 4.4329 5.92621e-005 -0.0456283 -0.00979178 -9.39785 -7.91692 -0.663798 5.62131 3.83739 1.70024 -0.344712 -25.3601 -5.61289 0 0 0 0 0 0 -0.00975517 -0.00969887 -0.00983547 11.7276 -20.5935 7.4586 0.206938 1.65438 5.41356 -4.22499 33.1191 0.101263 -0.00975517 -0.00983547 -0.00969887 -2.23315 10.9872 4.43004 -0.112021 6.76314 -1.9971 5.9876 11.7566 -0.390182 
